# xmcd
#
# Track frame offsets:
#	150
#	21387
#	39552
#	58242
#	77170
#	97232
#	114757
#	138047
#	158000
#	177227
#
# Disc length: 2553 seconds
#
# Revision: 1
# Processed by: cddbd v1.4PL0 Copyright (c) Steve Scherf et al.
# Submitted via: audiograbber 1.81.03
#
DISCID=7d09f70a
DTITLE=Madison County - Make My Way Back Home
DYEAR=1900
DGENRE=Country
TTITLE0=Taken Back in Time
TTITLE1=Make My Way Back Home
TTITLE2=Mystified
TTITLE3=I Will Always Be Your Man
TTITLE4=How Precious the Minute Is
TTITLE5=You Snooze, You Lose
TTITLE6=Don't Say
TTITLE7=One Lane Road
TTITLE8=Sweet Dreams
TTITLE9=Greezy Fingers (Instrumental)
EXTD=
EXTT0=
EXTT1=
EXTT2=
EXTT3=
EXTT4=
EXTT5=
EXTT6=
EXTT7=
EXTT8=
EXTT9=
PLAYORDER=
